# xmcd
#
# Track frame offsets: 
#        150
#        11278
#        24719
#        32117
#        42514
#        52374
#        63207
#        67829
#        80442
#        87124
#        95716
#        104009
#        114918
#        127879
#        137175
#        147203
#        161166
#        173195
#        178277
#        185692
#        191523
#        195873
#        206973
#        213123
#        223716
#        241941
#        250933
#        253033
#        262841
#        277991
#        287891
#        291941
#        301499
#        306749
#        314624
#        316274
#        324362
#        326936
#        335590
#        339028
#
# Disc length: 4619 seconds
#
# Revision: 2
# Processed by: cddbd v1.5.2PL0 Copyright (c) Steve Scherf et al.
# Submitted via: ExactAudioCopy v0.95a5
#
DISCID=67120928
DTITLE=Ritchie Valens - The Lost Tapes
DYEAR=1900
DGENRE=Rock and Roll
TTITLE0=We Belong Together (Original Demo From Bob Keane's Studio)
TTITLE1=Blues With Drum (Demo From Bob Keane's Studio)
TTITLE2=Ritchie's Blues (From Bob Keane's Studio. Bass And Drums Were 
TTITLE2=Added To This To Create The Master Issued On "Ritchie" LP)
TTITLE3=Come On Let's Go (Original Demo From Bob Keane's Studio)
TTITLE4=In A Turkish Town (Original Demo From Bob Keane's Studio)
TTITLE5=Dooby Dooby Wah (Original Demo From Bob Keane's Studio)
TTITLE6=Bluebirds Over The Mountain (Original Demo From Bob Keane's St
TTITLE6=udio)
TTITLE7=That's My Little Suzie (Original Demo From Bob Keane's Studio)
TTITLE8=Let's Rock And Roll (From Bob Keane's Studio Issued On "Live A
TTITLE8=t Pacoima Jr High" LP)
TTITLE9=Donna 1  (Original Demo From Bob Keane's Studio Of Unfinished 
TTITLE9=Song)
TTITLE10=Donna 2 (Original Demo From Bob Keane's Studio With Modificat
TTITLE10=ions)
TTITLE11=Blues Instrumental (Demo From Bob Keane's Studio)
TTITLE12=Cry Cry Cry 1 (Original Demo From Bob Keane's Studio)
TTITLE13=Cry Cry Cry 2 (Original Demo From Bob Keane's Studio)
TTITLE14=Malaguena (Original Demo From Bob Keane's Studio - Test With 
TTITLE14=Piano)
TTITLE15=Blues - Slow (Demo From Bob Keane's Studio - Test With Piano)
TTITLE16=Stay beside Me (Original Demo From Bob Keane's Studio)
TTITLE17=Rhythm Song (From "Live At Pacoima Jr High" LP)
TTITLE18=Guitar Instrumental (From "Live At Pacoima Jr High" LP)
TTITLE19=Rock Lil Darlin' (From "Live At Pacoima Jr High" LP)
TTITLE20=Cry Cry Cry (Demo From Bob Keane's Studio - False Start)
TTITLE21=Cry Cry Cry (Demo From Bob Keane's Studio - Complete Take)
TTITLE22=Cry Cry Cry (From Master Studio Sessions - Breakdown)
TTITLE23=Cry Cry Cry (From Master Studio Sessions - Complete Take - Ta
TTITLE23=ke 3)
TTITLE24=Dooby Dooby Wah (From Master Studio Sessions - Takes 1, 2, 4 
TTITLE24=& 7 - False Starts)
TTITLE25=Dooby Dooby Wah (From Master Studio Sessions - Take 16)
TTITLE26=In A Turkish Town (From Bob Keane's Studio - Take 13 - False 
TTITLE26=Start)
TTITLE27=In A Turkish Town (From Bob Keane's Studio - Take 14. This Wa
TTITLE27=s Slightly Slowed Down, Harmony Vocal Plus Echo Added And A R
TTITLE27=epeat
TTITLE28=La Bamba (From Master Studio Sessions - Band Track - Takes 1 
TTITLE28=& 2 - Break Down and False Start)
TTITLE29=La Bamba (From Master Studio Sessions - Band Track - Take 5 -
TTITLE29=Complete Take)
TTITLE30=La Bamba (From Master Studio Sessions - Band Track)
TTITLE31=La Bamba (From Master Studio Sessions - Band Track - Take 8 -
TTITLE31=Complete Take, Master Backing Track)
TTITLE32=Bluebirds Over The Mountain (From Master Studio Sessions - Ta
TTITLE32=ke 1 - False Start)
TTITLE33=Bluebirds Over The Mountain (From Master Studio Sessions - Ta
TTITLE33=ke 3 - Complete Take)
TTITLE34=Bluebirds Over The Mountain (From Master Studio)
TTITLE35=Bluebirds Over The Mountain (From Master Studio Sessions - Ta
TTITLE35=ke 5 - Complete Take)
TTITLE36=That's My Little Suzie (From Master Studio Sessions - Take 1 
TTITLE36=False Start)
TTITLE37=That's My Little Suzie (From Master Studio Sessions - Take 2)
TTITLE38=Ooh! My Head (Fragment Of Early Version)
TTITLE39=Ritchie Valens Commercial (Followed By Contemporary News Repo
TTITLE39=rt)
EXTD=
EXTT0=
EXTT1=
EXTT2=
EXTT3=
EXTT4=
EXTT5=
EXTT6=
EXTT7=
EXTT8=
EXTT9=
EXTT10=
EXTT11=
EXTT12=
EXTT13=
EXTT14=
EXTT15=
EXTT16=
EXTT17=
EXTT18=
EXTT19=
EXTT20=
EXTT21=
EXTT22=
EXTT23=
EXTT24=
EXTT25=
EXTT26=
EXTT27=
EXTT28=
EXTT29=
EXTT30=
EXTT31=
EXTT32=
EXTT33=
EXTT34=
EXTT35=
EXTT36=
EXTT37=
EXTT38=
EXTT39=
PLAYORDER=
